<svg fill="none" xmlns="http://www.w3.org/2000/svg" viewBox="0 0 958 313"><g filter="url(#filter0_i)"><path fill-rule="evenodd" clip-rule="evenodd" d="M23 10a9 9 0 00-9 9v82a9 9 0 009 9h58.08c3.858 8.83 12.668 15 22.92 15 13.807 0 25-11.193 25-25 0-10.252-6.17-19.062-15-22.92V19a9 9 0 00-9-9H23zm-3.248 134.326c.625-.859 1.507-1.289 2.646-1.289.521 0 1.052.095 1.592.283.54.189 1.078.41 1.612.664l.976-2.461c-1.4-.67-2.793-1.005-4.18-1.005-1.36 0-2.548.299-3.564.898-1.01.592-1.784 1.449-2.324 2.568-.54 1.114-.81 2.412-.81 3.897 0 2.357.55 4.167 1.65 5.43 1.1 1.256 2.688 1.884 4.765 1.884 1.446 0 2.754-.244 3.926-.732v-2.539c-1.426.501-2.64.752-3.643.752-2.389 0-3.584-1.592-3.584-4.776 0-1.53.313-2.721.938-3.574zm12.002 7.647c-.352-.554-.527-1.371-.527-2.452 0-1.087.175-1.897.527-2.431.351-.541.924-.811 1.719-.811.8 0 1.377.27 1.728.811.352.54.527 1.351.527 2.431 0 1.088-.175 1.908-.527 2.461-.345.547-.915.821-1.709.821-.8 0-1.38-.277-1.738-.83zm5.615 1.718c.938-1.002 1.406-2.392 1.406-4.17 0-1.145-.215-2.145-.644-2.998a4.562 4.562 0 00-1.846-1.962c-.8-.456-1.725-.684-2.773-.684-1.686 0-2.995.495-3.926 1.484-.931.99-1.396 2.377-1.396 4.16 0 1.146.214 2.149.644 3.008.43.86 1.045 1.52 1.846 1.983.8.455 1.725.683 2.773.683 1.673 0 2.979-.501 3.916-1.504zm8.975-5.683c-.469.182-1.267.273-2.393.273h-1.094v2.061h1.153c1.055 0 1.836.107 2.343.322.508.208.762.534.762.977 0 .403-.24.716-.722.937-.482.215-1.208.322-2.178.322a8.893 8.893 0 01-1.944-.224 9.116 9.116 0 01-1.836-.615v2.46c.977.45 2.377.674 4.2.674 1.1 0 2.057-.14 2.87-.42.815-.28 1.436-.677 1.866-1.191a2.68 2.68 0 00.645-1.768c0-.657-.192-1.188-.576-1.591-.378-.411-1.013-.726-1.905-.948v-.097c1.452-.371 2.178-1.172 2.178-2.403 0-.892-.41-1.598-1.23-2.119-.82-.521-1.911-.781-3.272-.781-.898 0-1.712.065-2.441.195-.73.124-1.482.332-2.256.625l.879 2.08a9.068 9.068 0 011.728-.507 9.063 9.063 0 011.71-.186c.793 0 1.363.088 1.708.264.345.175.518.439.518.791 0 .397-.238.687-.713.869zm12.841-1.69v6.504h-4.082c.502-.95.892-1.969 1.172-3.056a28.39 28.39 0 00.674-3.448h2.236zm1.905 12.598h2.676v-6.094h-1.602v-8.74H54.45c-.17 1.901-.465 3.591-.889 5.068-.423 1.478-.947 2.702-1.572 3.672h-.918v6.094h2.676V155h7.344v3.916zm10.898-5.4l.576 1.484h2.08v-7.275c0-1.302-.39-2.273-1.171-2.911-.782-.638-1.905-.957-3.37-.957-1.53 0-2.923.329-4.18.987l.987 2.011c1.178-.527 2.204-.791 3.076-.791 1.133 0 1.7.554 1.7 1.661v.478l-1.895.059c-1.634.058-2.858.364-3.672.918-.807.547-1.21 1.399-1.21 2.558 0 1.107.299 1.96.898 2.559.605.599 1.432.898 2.48.898.853 0 1.543-.12 2.07-.361.534-.247 1.052-.687 1.553-1.318h.078zm-1.455-3.536l1.153-.039v.899c0 .657-.209 1.185-.626 1.582-.41.397-.96.596-1.65.596-.963 0-1.445-.42-1.445-1.26 0-.586.211-1.022.635-1.309.423-.286 1.067-.442 1.933-.469zm10.069-1.582v-4.316H77.72V155h3.574l5.02-7.637c-.13 1.413-.196 2.507-.196 3.282V155H89v-10.918h-3.584l-5.039 7.656c.15-1.771.225-2.884.225-3.34zm6.142-6.347c.794-.56 1.253-1.449 1.377-2.666h-2.695c-.072.618-.27 1.077-.596 1.377-.319.293-.807.439-1.465.439-.748 0-1.27-.133-1.562-.4-.287-.274-.453-.746-.498-1.416h-2.666c.09 1.263.504 2.161 1.24 2.695.742.534 1.885.801 3.428.801 1.497 0 2.643-.277 3.437-.83zm14.424 4.267v-2.236H91.031v2.236h3.584V155h2.979v-8.682h3.574zm5.078.284c.358-.404.853-.606 1.484-.606.632 0 1.133.202 1.504.606.371.397.564.963.577 1.699h-4.18c.052-.736.257-1.302.615-1.699zm-2.217 7.138c.99.97 2.364 1.455 4.121 1.455.853 0 1.576-.065 2.168-.195a6.87 6.87 0 001.67-.576v-2.305a9.25 9.25 0 01-1.836.654 8.168 8.168 0 01-1.865.206c-.846 0-1.504-.238-1.973-.713-.468-.476-.719-1.136-.752-1.983h7.042v-1.445c0-1.55-.43-2.764-1.29-3.643-.859-.879-2.06-1.318-3.603-1.318-1.615 0-2.881.501-3.799 1.504-.911.996-1.367 2.409-1.367 4.238 0 1.777.495 3.151 1.484 4.121zM8.844 180.516L9.42 182h2.08v-7.275c0-1.302-.39-2.273-1.172-2.911-.781-.638-1.904-.957-3.369-.957-1.53 0-2.923.329-4.18.987l.987 2.011c1.178-.527 2.203-.791 3.076-.791 1.133 0 1.699.554 1.699 1.661v.478l-1.895.059c-1.634.058-2.858.364-3.671.918-.808.547-1.211 1.399-1.211 2.558 0 1.107.3 1.96.898 2.559.606.599 1.432.898 2.48.898.853 0 1.544-.12 2.07-.361.535-.247 1.052-.687 1.554-1.318h.078zm-1.455-3.536l1.152-.039v.899c0 .657-.208 1.185-.625 1.582-.41.397-.96.596-1.65.596-.964 0-1.446-.42-1.446-1.26 0-.586.212-1.022.635-1.309.423-.286 1.068-.442 1.934-.469zm17.627-5.898h-3.282l-4.18 5.303v-5.303h-2.978V182h2.979v-5.537L22.018 182h3.378l-4.707-5.684 4.327-5.234zm12.382 0h-3.28l-4.18 5.303v-5.303h-2.979V182h2.979v-5.537L34.4 182h3.38l-4.708-5.684 4.326-5.234zm8.301 9.434l.576 1.484h2.08v-7.275c0-1.302-.39-2.273-1.171-2.911-.782-.638-1.905-.957-3.37-.957-1.53 0-2.923.329-4.18.987l.987 2.011c1.178-.527 2.204-.791 3.076-.791 1.133 0 1.7.554 1.7 1.661v.478l-1.895.059c-1.634.058-2.858.364-3.672.918-.807.547-1.21 1.399-1.21 2.558 0 1.107.299 1.96.898 2.559.605.599 1.432.898 2.48.898.853 0 1.543-.12 2.07-.361.534-.247 1.052-.687 1.553-1.318h.078zm-1.455-3.536l1.153-.039v.899c0 .657-.209 1.185-.625 1.582-.41.397-.96.596-1.65.596-.964 0-1.446-.42-1.446-1.26 0-.586.211-1.022.634-1.309.424-.286 1.068-.442 1.934-.469zm8.887-5.898h-3.262l4.336 10.84-.176.537c-.221.651-.53 1.136-.927 1.455-.391.326-.85.488-1.377.488-.424 0-.814-.042-1.172-.127v2.364c.495.11 1 .166 1.513.166 1.049 0 1.963-.284 2.744-.85.788-.566 1.394-1.419 1.817-2.559l4.62-12.314h-3.194l-2.022 6.143a8.37 8.37 0 00-.42 1.894h-.058c-.065-.729-.186-1.361-.362-1.894l-2.06-6.143zm12.666 4.199v-4.199h-2.979V182h2.979v-4.502h4.16V182h2.979v-10.918h-2.979v4.199h-4.16zm19.297-1.963v-2.236H74.957v2.236h3.584V182h2.978v-8.682h3.575zm24.267 6.963c1.101-1.282 1.651-3.095 1.651-5.439s-.544-4.154-1.631-5.43c-1.087-1.276-2.66-1.914-4.717-1.914-1.823 0-3.271.501-4.346 1.504-1.067.996-1.712 2.435-1.933 4.316h-2.793v-5.595h-3.028V182h3.028v-6.162h2.734c.17 2.07.794 3.649 1.875 4.736 1.081 1.081 2.562 1.621 4.444 1.621 2.05 0 3.623-.638 4.716-1.914zm-7.109-1.836c-.547-.813-.82-2.015-.82-3.603 0-1.589.273-2.79.82-3.604.553-.814 1.364-1.22 2.432-1.22 1.061 0 1.858.406 2.392 1.22.541.814.811 2.015.811 3.604 0 3.209-1.081 4.814-3.242 4.814-1.049 0-1.846-.403-2.393-1.211zm20 3.555h3.018v-14.277h-9.014a168.273 168.273 0 01-.762 5.537c-.293 1.946-.53 3.349-.713 4.209-.176.853-.364 1.439-.566 1.758-.202.312-.475.468-.82.468-.333 0-.687-.065-1.065-.195v2.48c.417.144.899.215 1.445.215 1.01.013 1.81-.254 2.403-.8.592-.547 1.041-1.491 1.347-2.833.313-1.347.671-3.684 1.075-7.011l.156-1.309h3.496V182zm100.781 95.842c0 2.363-.586 4.179-1.758 5.449-1.171 1.27-2.851 1.904-5.039 1.904-2.187 0-3.867-.634-5.039-1.904-1.172-1.27-1.758-3.092-1.758-5.469 0-2.376.586-4.189 1.758-5.439 1.179-1.257 2.865-1.885 5.059-1.885s3.87.632 5.029 1.895c1.166 1.263 1.748 3.079 1.748 5.449zm-10.42 0c0 1.595.303 2.796.908 3.603.606.808 1.511 1.211 2.715 1.211 2.416 0 3.623-1.605 3.623-4.814 0-3.216-1.201-4.824-3.603-4.824-1.205 0-2.113.406-2.725 1.22-.612.808-.918 2.009-.918 3.604zm21.123-3.819c1.823.15 3.252.713 4.287 1.69 1.036.976 1.553 2.252 1.553 3.828 0 1.608-.511 2.897-1.533 3.867-1.022.964-2.458 1.52-4.307 1.67v4.727h-2.763v-4.727c-1.843-.169-3.285-.745-4.327-1.728-1.035-.99-1.552-2.26-1.552-3.809 0-1.647.501-2.946 1.504-3.896 1.002-.957 2.461-1.498 4.375-1.622v-4.218h2.763v4.218zm-5.576 5.518c0 .918.251 1.667.752 2.246.501.573 1.188.918 2.061 1.035v-6.562c-.84.11-1.521.465-2.041 1.064-.515.599-.772 1.338-.772 2.217zm8.36 0c0-.859-.245-1.582-.733-2.168-.488-.592-1.172-.95-2.051-1.074v6.523c.866-.117 1.547-.465 2.041-1.045.495-.579.743-1.325.743-2.236zm7.9-.02c0 1.081.176 1.898.527 2.452.358.553.938.83 1.739.83.794 0 1.363-.274 1.709-.821.351-.553.527-1.373.527-2.461 0-1.08-.176-1.891-.527-2.431-.352-.541-.928-.811-1.729-.811-.794 0-1.367.27-1.719.811-.351.534-.527 1.344-.527 2.431zm7.549 0c0 1.778-.469 3.168-1.407 4.17-.937 1.003-2.242 1.504-3.916 1.504-1.048 0-1.972-.228-2.773-.683a4.615 4.615 0 01-1.846-1.983c-.429-.859-.644-1.862-.644-3.008 0-1.783.465-3.17 1.396-4.16.931-.989 2.24-1.484 3.926-1.484 1.048 0 1.973.228 2.774.684a4.56 4.56 0 011.845 1.962c.43.853.645 1.853.645 2.998zm8.457 5.674c-1.283 0-2.289-.465-3.018-1.396h-.156c.104.911.156 1.439.156 1.582v4.424h-2.978v-15.723h2.422l.419 1.416h.137c.697-1.081 1.729-1.621 3.096-1.621 1.289 0 2.298.498 3.027 1.494.729.996 1.094 2.38 1.094 4.15 0 1.166-.173 2.178-.518 3.038-.338.859-.823 1.513-1.455 1.962-.631.45-1.373.674-2.226.674zm-.879-8.935c-.736 0-1.273.228-1.611.683-.339.45-.515 1.195-.528 2.237v.322c0 1.172.173 2.012.518 2.519.351.508.905.762 1.66.762 1.335 0 2.002-1.1 2.002-3.301 0-1.074-.166-1.878-.498-2.412-.326-.54-.84-.81-1.543-.81zm21.299 8.74h-2.784v-8.604l-.156.606c-.351 1.374-.667 2.412-.947 3.115L275.025 285h-2.119l-1.963-4.922c-.28-.716-.579-1.722-.898-3.017l-.186-.665V285h-2.773v-10.918h4.102l1.874 4.658c.196.502.375 1.078.538 1.729.169.651.283 1.207.341 1.67.215-.977.381-1.677.498-2.1.124-.43.258-.824.401-1.182.143-.358.791-1.949 1.943-4.775h4.063V285zm6.015-10.918v4.316c0 .456-.075 1.569-.224 3.34l5.039-7.656h3.584V285h-2.881v-4.355c0-.775.065-1.869.195-3.282L287.555 285h-3.575v-10.918h2.881zm20.567 0v2.236h-3.574V285h-2.979v-8.682h-3.584v-2.236h10.137zm6.562 1.914c-.631 0-1.126.202-1.484.606-.358.397-.563.963-.615 1.699h4.179c-.013-.736-.205-1.302-.576-1.699-.371-.404-.872-.606-1.504-.606zm.42 9.199c-1.758 0-3.131-.485-4.121-1.455-.99-.97-1.484-2.344-1.484-4.121 0-1.829.455-3.242 1.367-4.238.918-1.003 2.184-1.504 3.799-1.504 1.543 0 2.744.439 3.603 1.318.86.879 1.289 2.093 1.289 3.643v1.445h-7.041c.033.847.283 1.507.752 1.983.469.475 1.127.713 1.973.713.657 0 1.279-.069 1.865-.206a9.25 9.25 0 001.836-.654v2.305a6.87 6.87 0 01-1.67.576c-.592.13-1.315.195-2.168.195zm-75.527 20.086c1.126 0 1.924-.091 2.392-.273.476-.182.713-.472.713-.869 0-.352-.172-.616-.517-.791-.345-.176-.915-.264-1.709-.264-.502 0-1.071.062-1.709.186a9.067 9.067 0 00-1.729.507l-.879-2.08a12.15 12.15 0 012.256-.625c.729-.13 1.543-.195 2.442-.195 1.36 0 2.451.26 3.271.781.82.521 1.231 1.227 1.231 2.119 0 1.231-.726 2.032-2.178 2.403v.097c.892.222 1.526.537 1.904.948.384.403.576.934.576 1.591 0 .664-.215 1.254-.644 1.768-.43.514-1.052.911-1.865 1.191-.814.28-1.771.42-2.872.42-1.823 0-3.222-.224-4.199-.674v-2.46a9.12 9.12 0 001.836.615c.671.15 1.318.224 1.943.224.971 0 1.696-.107 2.178-.322.482-.221.723-.534.723-.937 0-.443-.254-.769-.762-.977-.508-.215-1.289-.322-2.344-.322h-1.152v-2.061h1.094zM254.215 312l-.576-1.484h-.078c-.502.631-1.019 1.071-1.553 1.318-.528.241-1.218.361-2.07.361-1.049 0-1.876-.299-2.481-.898-.599-.599-.898-1.452-.898-2.559 0-1.159.403-2.011 1.211-2.558.813-.554 2.037-.86 3.671-.918l1.895-.059v-.478c0-1.107-.566-1.661-1.699-1.661-.873 0-1.898.264-3.076.791l-.987-2.011c1.257-.658 2.65-.987 4.18-.987 1.465 0 2.588.319 3.369.957.781.638 1.172 1.609 1.172 2.911V312h-2.08zm-.879-5.059l-1.152.039c-.866.027-1.511.183-1.934.469-.423.287-.635.723-.635 1.309 0 .84.482 1.26 1.446 1.26.69 0 1.24-.199 1.65-.596.417-.397.625-.925.625-1.582v-.899zm13.193-5.859h3.282l-4.327 5.234 4.707 5.684h-3.379l-4.462-5.537V312h-2.979v-10.918h2.979v5.303l4.179-5.303zM278.688 312l-.577-1.484h-.078c-.501.631-1.019 1.071-1.553 1.318-.527.241-1.217.361-2.07.361-1.048 0-1.875-.299-2.48-.898-.599-.599-.899-1.452-.899-2.559 0-1.159.404-2.011 1.211-2.558.814-.554 2.038-.86 3.672-.918l1.895-.059v-.478c0-1.107-.567-1.661-1.7-1.661-.872 0-1.897.264-3.076.791l-.986-2.011c1.256-.658 2.65-.987 4.18-.987 1.464 0 2.587.319 3.369.957.781.638 1.172 1.609 1.172 2.911V312h-2.08zm-.879-5.059l-1.153.039c-.866.027-1.51.183-1.933.469-.424.287-.635.723-.635 1.309 0 .84.482 1.26 1.445 1.26.69 0 1.24-.199 1.651-.596.416-.397.625-.925.625-1.582v-.899zm8.75-1.66c1.126 0 1.923-.091 2.392-.273.475-.182.713-.472.713-.869 0-.352-.172-.616-.518-.791-.345-.176-.914-.264-1.708-.264-.502 0-1.071.062-1.709.186a9.067 9.067 0 00-1.729.507l-.879-2.08a12.15 12.15 0 012.256-.625c.729-.13 1.543-.195 2.441-.195 1.361 0 2.452.26 3.272.781.82.521 1.23 1.227 1.23 2.119 0 1.231-.726 2.032-2.177 2.403v.097c.892.222 1.526.537 1.904.948.384.403.576.934.576 1.591 0 .664-.215 1.254-.644 1.768-.43.514-1.052.911-1.866 1.191-.814.28-1.771.42-2.871.42-1.823 0-3.222-.224-4.199-.674v-2.46a9.12 9.12 0 001.836.615c.67.15 1.318.224 1.943.224.97 0 1.696-.107 2.178-.322.482-.221.723-.534.723-.937 0-.443-.254-.769-.762-.977-.508-.215-1.289-.322-2.344-.322h-1.152v-2.061h1.094zm138.767-151.99c1.172-1.27 1.758-3.086 1.758-5.449 0-2.37-.583-4.186-1.748-5.449-1.159-1.263-2.835-1.895-5.029-1.895s-3.881.628-5.059 1.885c-1.172 1.25-1.758 3.063-1.758 5.439 0 2.377.586 4.199 1.758 5.469 1.172 1.27 2.852 1.904 5.039 1.904 2.188 0 3.867-.634 5.039-1.904zm-7.754-1.846c-.605-.807-.908-2.008-.908-3.603 0-1.595.306-2.796.918-3.604.612-.814 1.52-1.22 2.725-1.22 2.402 0 3.603 1.608 3.603 4.824 0 3.209-1.208 4.814-3.623 4.814-1.204 0-2.109-.403-2.715-1.211zM439.73 155v-10.918h-9.921V155h2.978v-8.682h3.955V155h2.988zm9.922 0h2.979v-10.918h-8.262c-.143 2.181-.316 3.897-.517 5.147-.196 1.243-.42 2.132-.674 2.666-.248.533-.557.8-.928.8-.319 0-.638-.065-.957-.195v2.383c.443.208 1.009.312 1.699.312.807 0 1.459-.267 1.953-.8.502-.541.902-1.41 1.201-2.608.3-1.204.554-3.027.762-5.469h2.744V155zm12.471-1.484l.576 1.484h2.08v-7.275c0-1.302-.39-2.273-1.172-2.911-.781-.638-1.904-.957-3.369-.957-1.53 0-2.923.329-4.179.987l.986 2.011c1.178-.527 2.204-.791 3.076-.791 1.133 0 1.699.554 1.699 1.661v.478l-1.894.059c-1.634.058-2.858.364-3.672.918-.807.547-1.211 1.399-1.211 2.558 0 1.107.299 1.96.898 2.559.606.599 1.433.898 2.481.898.853 0 1.543-.12 2.07-.361.534-.247 1.052-.687 1.553-1.318h.078zm-1.455-3.536l1.152-.039v.899c0 .657-.208 1.185-.625 1.582-.41.397-.96.596-1.65.596-.964 0-1.445-.42-1.445-1.26 0-.586.211-1.022.634-1.309.424-.286 1.068-.442 1.934-.469zm16.221-3.662v-2.236h-10.137v2.236h3.584V155h2.978v-8.682h3.575zm4.922 2.08v-4.316h-2.881V155h3.574l5.019-7.637c-.13 1.413-.195 2.507-.195 3.282V155h2.881v-10.918h-3.584l-5.039 7.656c.15-1.771.225-2.884.225-3.34zm20.566-2.08v-2.236H492.24v2.236h3.584V155h2.979v-8.682h3.574zm5.078.284c.358-.404.853-.606 1.484-.606.632 0 1.133.202 1.504.606.371.397.564.963.577 1.699h-4.18c.052-.736.257-1.302.615-1.699zm-2.217 7.138c.99.97 2.364 1.455 4.121 1.455.853 0 1.576-.065 2.168-.195a6.87 6.87 0 001.67-.576v-2.305a9.25 9.25 0 01-1.836.654 8.168 8.168 0 01-1.865.206c-.846 0-1.504-.238-1.973-.713-.468-.476-.719-1.136-.752-1.983h7.041v-1.445c0-1.55-.429-2.764-1.289-3.643-.859-.879-2.06-1.318-3.603-1.318-1.615 0-2.881.501-3.799 1.504-.911.996-1.367 2.409-1.367 4.238 0 1.777.495 3.151 1.484 4.121zm-63.994 22.86c0 3.73 1.699 5.595 5.098 5.595.748 0 1.367-.058 1.855-.175a4.813 4.813 0 001.465-.635v-2.549a5.91 5.91 0 01-1.465.723 5.43 5.43 0 01-1.592.224c-1.549 0-2.324-1.068-2.324-3.203 0-2.2.775-3.301 2.324-3.301a4.1 4.1 0 011.211.186c.404.117.84.27 1.309.459l.879-2.305c-1.003-.495-2.136-.742-3.399-.742-1.725 0-3.05.491-3.974 1.475-.925.976-1.387 2.392-1.387 4.248zm13.574-1.524v-3.994h-2.978v4.063c0 1.126.325 1.995.976 2.607.651.605 1.573.908 2.764.908.553 0 1.126-.075 1.719-.224.592-.15 1.234-.407 1.924-.772V182h2.978v-10.918h-2.978v4.717c-.502.208-1 .377-1.494.508a6.178 6.178 0 01-1.592.195c-.879 0-1.319-.475-1.319-1.426zm13.545-1.474c.358-.404.853-.606 1.485-.606.631 0 1.132.202 1.504.606.371.397.563.963.576 1.699h-4.18c.052-.736.257-1.302.615-1.699zm-2.217 7.138c.99.97 2.364 1.455 4.122 1.455.852 0 1.575-.065 2.168-.195a6.862 6.862 0 001.669-.576v-2.305c-.638.3-1.25.518-1.835.654a8.177 8.177 0 01-1.866.206c-.846 0-1.504-.238-1.972-.713-.469-.476-.72-1.136-.752-1.983h7.041v-1.445c0-1.55-.43-2.764-1.289-3.643-.86-.879-2.061-1.318-3.604-1.318-1.614 0-2.881.501-3.799 1.504-.911.996-1.367 2.409-1.367 4.238 0 1.777.495 3.151 1.484 4.121zm20.03-7.422v-2.236h-10.137v2.236h3.584V182h2.979v-8.682h3.574zM626.09 285h-3.018v-11.758h-5.254V285h-3.027v-14.277h11.299V285zm5.742-5.479c0 1.081.176 1.898.527 2.452.358.553.938.83 1.739.83.794 0 1.364-.274 1.709-.821.351-.553.527-1.373.527-2.461 0-1.08-.176-1.891-.527-2.431-.352-.541-.928-.811-1.729-.811-.794 0-1.367.27-1.719.811-.351.534-.527 1.344-.527 2.431zm7.549 0c0 1.778-.469 3.168-1.406 4.17-.938 1.003-2.243 1.504-3.916 1.504-1.049 0-1.973-.228-2.774-.683a4.615 4.615 0 01-1.846-1.983c-.429-.859-.644-1.862-.644-3.008 0-1.783.465-3.17 1.396-4.16.931-.989 2.24-1.484 3.926-1.484 1.048 0 1.973.228 2.774.684a4.56 4.56 0 011.845 1.962c.43.853.645 1.853.645 2.998zM651.617 285h-2.978v-8.682h-2.744c-.209 2.442-.463 4.265-.762 5.469-.3 1.198-.7 2.067-1.201 2.608-.495.533-1.146.8-1.953.8-.691 0-1.257-.104-1.7-.312V282.5c.319.13.638.195.957.195.371 0 .681-.267.928-.8.254-.534.479-1.423.674-2.666.202-1.25.374-2.966.517-5.147h8.262V285zm1.572-10.918h3.262l2.061 6.143c.176.533.296 1.165.361 1.894h.059a8.3 8.3 0 01.42-1.894l2.021-6.143h3.193l-4.619 12.314c-.423 1.14-1.028 1.993-1.816 2.559-.781.566-1.696.85-2.744.85a6.954 6.954 0 01-1.514-.166v-2.364c.358.085.749.127 1.172.127.527 0 .986-.162 1.377-.488.397-.319.706-.804.928-1.455l.175-.537-4.336-10.84zm15.567 0v3.994c0 .951.439 1.426 1.318 1.426.573 0 1.104-.065 1.592-.195.495-.131.993-.3 1.494-.508v-4.717h2.979V285h-2.979v-4.336c-.69.365-1.331.622-1.924.772a7.034 7.034 0 01-1.718.224c-1.192 0-2.113-.303-2.764-.908-.651-.612-.977-1.481-.977-2.607v-4.063h2.979zm13.389 0v4.316c0 .456-.075 1.569-.225 3.34l5.039-7.656h3.584V285h-2.881v-4.355c0-.775.065-1.869.195-3.282L682.838 285h-3.574v-10.918h2.881zm20.566 0v2.236h-3.574V285h-2.979v-8.682h-3.584v-2.236h10.137zm6.562 1.914c-.631 0-1.126.202-1.484.606-.358.397-.563.963-.615 1.699h4.18c-.013-.736-.206-1.302-.577-1.699-.371-.404-.872-.606-1.504-.606zm.42 9.199c-1.757 0-3.131-.485-4.121-1.455-.989-.97-1.484-2.344-1.484-4.121 0-1.829.456-3.242 1.367-4.238.918-1.003 2.184-1.504 3.799-1.504 1.543 0 2.744.439 3.603 1.318.86.879 1.289 2.093 1.289 3.643v1.445h-7.041c.033.847.284 1.507.752 1.983.469.475 1.127.713 1.973.713.658 0 1.279-.069 1.865-.206a9.25 9.25 0 001.836-.654v2.305a6.87 6.87 0 01-1.67.576c-.592.13-1.315.195-2.168.195zm-70.81 20.086c1.126 0 1.924-.091 2.392-.273.476-.182.713-.472.713-.869 0-.352-.172-.616-.517-.791-.345-.176-.915-.264-1.709-.264-.502 0-1.071.062-1.709.186a9.067 9.067 0 00-1.729.507l-.879-2.08a12.15 12.15 0 012.256-.625c.729-.13 1.543-.195 2.442-.195 1.36 0 2.451.26 3.271.781.82.521 1.231 1.227 1.231 2.119 0 1.231-.726 2.032-2.178 2.403v.097c.892.222 1.526.537 1.904.948.384.403.576.934.576 1.591 0 .664-.215 1.254-.644 1.768-.43.514-1.052.911-1.865 1.191-.814.28-1.771.42-2.872.42-1.823 0-3.222-.224-4.199-.674v-2.46a9.12 9.12 0 001.836.615c.671.15 1.318.224 1.943.224.971 0 1.696-.107 2.178-.322.482-.221.723-.534.723-.937 0-.443-.254-.769-.762-.977-.508-.215-1.289-.322-2.344-.322h-1.152v-2.061h1.094zM654.215 312l-.576-1.484h-.078c-.502.631-1.019 1.071-1.553 1.318-.528.241-1.218.361-2.07.361-1.049 0-1.876-.299-2.481-.898-.599-.599-.898-1.452-.898-2.559 0-1.159.403-2.011 1.211-2.558.813-.554 2.037-.86 3.671-.918l1.895-.059v-.478c0-1.107-.566-1.661-1.699-1.661-.873 0-1.898.264-3.076.791l-.987-2.011c1.257-.658 2.65-.987 4.18-.987 1.465 0 2.588.319 3.369.957.781.638 1.172 1.609 1.172 2.911V312h-2.08zm-.879-5.059l-1.152.039c-.866.027-1.511.183-1.934.469-.423.287-.635.723-.635 1.309 0 .84.482 1.26 1.446 1.26.69 0 1.24-.199 1.65-.596.417-.397.625-.925.625-1.582v-.899zm13.193-5.859h3.282l-4.327 5.234 4.707 5.684h-3.379l-4.462-5.537V312h-2.979v-10.918h2.979v5.303l4.179-5.303zM678.688 312l-.577-1.484h-.078c-.501.631-1.019 1.071-1.553 1.318-.527.241-1.217.361-2.07.361-1.048 0-1.875-.299-2.48-.898-.599-.599-.899-1.452-.899-2.559 0-1.159.404-2.011 1.211-2.558.814-.554 2.038-.86 3.672-.918l1.895-.059v-.478c0-1.107-.567-1.661-1.7-1.661-.872 0-1.897.264-3.076.791l-.986-2.011c1.256-.658 2.65-.987 4.18-.987 1.464 0 2.587.319 3.369.957.781.638 1.172 1.609 1.172 2.911V312h-2.08zm-.879-5.059l-1.153.039c-.866.027-1.51.183-1.933.469-.424.287-.635.723-.635 1.309 0 .84.482 1.26 1.445 1.26.69 0 1.24-.199 1.651-.596.416-.397.625-.925.625-1.582v-.899zm8.75-1.66c1.126 0 1.923-.091 2.392-.273.475-.182.713-.472.713-.869 0-.352-.172-.616-.518-.791-.345-.176-.914-.264-1.708-.264-.502 0-1.071.062-1.709.186a9.067 9.067 0 00-1.729.507l-.879-2.08a12.15 12.15 0 012.256-.625c.729-.13 1.543-.195 2.441-.195 1.361 0 2.452.26 3.272.781.82.521 1.23 1.227 1.23 2.119 0 1.231-.726 2.032-2.177 2.403v.097c.891.222 1.526.537 1.904.948.384.403.576.934.576 1.591 0 .664-.215 1.254-.644 1.768-.43.514-1.052.911-1.866 1.191-.814.28-1.771.42-2.871.42-1.823 0-3.222-.224-4.199-.674v-2.46a9.12 9.12 0 001.836.615c.67.15 1.318.224 1.943.224.97 0 1.696-.107 2.178-.322.482-.221.723-.534.723-.937 0-.443-.254-.769-.762-.977-.508-.215-1.289-.322-2.344-.322h-1.152v-2.061h1.094zM780.357 155h3.018v-14.277h-11.299V155h3.028v-11.758h5.253V155zm9.288-3.027c-.352-.554-.528-1.371-.528-2.452 0-1.087.176-1.897.528-2.431.351-.541.924-.811 1.718-.811.801 0 1.377.27 1.729.811.351.54.527 1.351.527 2.431 0 1.088-.176 1.908-.527 2.461-.345.547-.915.821-1.709.821-.801 0-1.38-.277-1.738-.83zm5.615 1.718c.937-1.002 1.406-2.392 1.406-4.17 0-1.145-.215-2.145-.645-2.998a4.554 4.554 0 00-1.845-1.962c-.801-.456-1.725-.684-2.774-.684-1.686 0-2.994.495-3.925 1.484-.931.99-1.397 2.377-1.397 4.16 0 1.146.215 2.149.645 3.008a4.613 4.613 0 001.845 1.983c.801.455 1.726.683 2.774.683 1.673 0 2.978-.501 3.916-1.504zM805.924 155h2.978v-10.918h-8.261c-.144 2.181-.316 3.897-.518 5.147-.195 1.243-.42 2.132-.674 2.666-.247.533-.556.8-.928.8-.319 0-.638-.065-.957-.195v2.383c.443.208 1.01.312 1.7.312.807 0 1.458-.267 1.953-.8.501-.541.901-1.41 1.201-2.608.299-1.204.553-3.027.762-5.469h2.744V155zm7.812-10.918h-3.261l4.336 10.84-.176.537c-.222.651-.531 1.136-.928 1.455-.391.326-.85.488-1.377.488-.423 0-.814-.042-1.172-.127v2.364c.495.11 1 .166 1.514.166 1.048 0 1.963-.284 2.744-.85.788-.566 1.393-1.419 1.816-2.559l4.62-12.314h-3.194l-2.021 6.143a8.3 8.3 0 00-.42 1.894h-.059c-.065-.729-.185-1.361-.361-1.894l-2.061-6.143zm12.305 3.994v-3.994h-2.979v4.063c0 1.126.326 1.995.977 2.607.651.605 1.572.908 2.764.908.553 0 1.126-.075 1.718-.224.593-.15 1.234-.407 1.924-.772V155h2.979v-10.918h-2.979v4.717c-.501.208-.999.377-1.494.508a6.173 6.173 0 01-1.592.195c-.879 0-1.318-.475-1.318-1.426zm13.389.322v-4.316h-2.881V155h3.574l5.02-7.637c-.131 1.413-.196 2.507-.196 3.282V155h2.881v-10.918h-3.584l-5.039 7.656c.15-1.771.225-2.884.225-3.34zm20.566-2.08v-2.236h-10.137v2.236h3.584V155h2.979v-8.682h3.574zm5.078.284c.358-.404.853-.606 1.485-.606.631 0 1.132.202 1.503.606.372.397.564.963.577 1.699h-4.18c.052-.736.257-1.302.615-1.699zm-2.217 7.138c.99.97 2.364 1.455 4.122 1.455.852 0 1.575-.065 2.167-.195a6.855 6.855 0 001.67-.576v-2.305a9.25 9.25 0 01-1.836.654 8.162 8.162 0 01-1.865.206c-.846 0-1.504-.238-1.972-.713-.469-.476-.72-1.136-.752-1.983h7.041v-1.445c0-1.55-.43-2.764-1.289-3.643-.86-.879-2.061-1.318-3.604-1.318-1.615 0-2.881.501-3.799 1.504-.911.996-1.367 2.409-1.367 4.238 0 1.777.495 3.151 1.484 4.121zm26.631-9.658h-3.281l-4.18 5.303v-5.303h-2.978V155h2.978v-5.537L886.49 155h3.379l-4.707-5.684 4.326-5.234zm4.981 2.52c.358-.404.853-.606 1.484-.606.632 0 1.133.202 1.504.606.371.397.563.963.576 1.699h-4.179c.052-.736.257-1.302.615-1.699zm-2.217 7.138c.99.97 2.363 1.455 4.121 1.455.853 0 1.576-.065 2.168-.195a6.884 6.884 0 001.67-.576v-2.305a9.25 9.25 0 01-1.836.654 8.175 8.175 0 01-1.865.206c-.847 0-1.504-.238-1.973-.713-.469-.476-.719-1.136-.752-1.983h7.041v-1.445c0-1.55-.43-2.764-1.289-3.643s-2.06-1.318-3.603-1.318c-1.615 0-2.881.501-3.799 1.504-.912.996-1.367 2.409-1.367 4.238 0 1.777.494 3.151 1.484 4.121zm10.996 1.26h16.26v-10.918h-2.979v8.682h-3.662v-8.682h-2.978v8.682h-3.662v-8.682h-2.979V155zm20.156-12.246c-.95 1.295-1.425 3.197-1.425 5.703 0 2.103.465 3.753 1.396 4.951.937 1.192 2.24 1.787 3.906 1.787 1.667 0 2.972-.488 3.916-1.465.951-.983 1.426-2.36 1.426-4.13 0-1.537-.374-2.715-1.123-3.536-.749-.826-1.797-1.24-3.145-1.24-.651 0-1.259.143-1.826.43a3.463 3.463 0 00-1.367 1.23h-.146c.045-.8.166-1.442.361-1.923.202-.482.505-.853.908-1.114.404-.26 1.016-.455 1.836-.586 2.155-.319 3.656-.527 4.502-.625l-.342-2.597c-1.953.26-3.421.475-4.404.644-2.025.345-3.516 1.169-4.473 2.471zm6.172 7.109c0 1.947-.706 2.92-2.119 2.92-.781 0-1.383-.348-1.807-1.045-.423-.703-.634-1.715-.634-3.037.136-.267.348-.53.634-.791a3.84 3.84 0 01.957-.644 2.494 2.494 0 011.055-.245c1.276 0 1.914.948 1.914 2.842zm8.545-3.261c.358-.404.853-.606 1.484-.606.632 0 1.133.202 1.504.606.371.397.564.963.577 1.699h-4.18c.052-.736.257-1.302.615-1.699zm-2.217 7.138c.99.97 2.364 1.455 4.121 1.455.853 0 1.576-.065 2.168-.195a6.87 6.87 0 001.67-.576v-2.305a9.25 9.25 0 01-1.836.654 8.168 8.168 0 01-1.865.206c-.846 0-1.504-.238-1.973-.713-.468-.476-.719-1.136-.751-1.983h7.041v-1.445c0-1.55-.43-2.764-1.29-3.643-.859-.879-2.06-1.318-3.603-1.318-1.615 0-2.881.501-3.799 1.504-.911.996-1.367 2.409-1.367 4.238 0 1.777.495 3.151 1.484 4.121zm21.436-9.658h-3.281l-4.18 5.303v-5.303H946.9V155h2.979v-5.537l4.463 5.537h3.379l-4.707-5.684 4.326-5.234zm-177.481 34.891c-.351-.554-.527-1.371-.527-2.452 0-1.087.176-1.897.527-2.431.352-.541.925-.811 1.719-.811.801 0 1.377.27 1.729.811.351.54.527 1.351.527 2.431 0 1.088-.176 1.908-.527 2.461-.345.547-.915.821-1.709.821-.801 0-1.381-.277-1.739-.83zm5.616 1.718c.937-1.002 1.406-2.392 1.406-4.17 0-1.145-.215-2.145-.645-2.998a4.56 4.56 0 00-1.845-1.962c-.801-.456-1.726-.684-2.774-.684-1.686 0-2.995.495-3.926 1.484-.931.99-1.396 2.377-1.396 4.16 0 1.146.215 2.149.644 3.008.43.86 1.045 1.52 1.846 1.983.801.455 1.725.683 2.774.683 1.673 0 2.978-.501 3.916-1.504zm12.9-7.373v-2.236h-10.137v2.236h3.584V182h2.979v-8.682h3.574zm6.572 3.282c0 3.73 1.699 5.595 5.098 5.595.749 0 1.367-.058 1.855-.175a4.813 4.813 0 001.465-.635v-2.549a5.91 5.91 0 01-1.465.723 5.424 5.424 0 01-1.591.224c-1.55 0-2.325-1.068-2.325-3.203 0-2.2.775-3.301 2.325-3.301.403 0 .807.062 1.211.186.403.117.839.27 1.308.459l.879-2.305c-1.003-.495-2.135-.742-3.398-.742-1.726 0-3.051.491-3.975 1.475-.925.976-1.387 2.392-1.387 4.248zm12.657-5.518h-3.262l4.336 10.84-.176.537c-.221.651-.531 1.136-.928 1.455a2.08 2.08 0 01-1.377.488c-.423 0-.814-.042-1.172-.127v2.364c.495.11 1 .166 1.514.166 1.048 0 1.963-.284 2.744-.85.788-.566 1.393-1.419 1.817-2.559l4.619-12.314h-3.194l-2.021 6.143a8.408 8.408 0 00-.42 1.894h-.059c-.065-.729-.185-1.361-.361-1.894l-2.06-6.143zM838.268 182h2.783v-10.918h-4.063c-1.152 2.826-1.8 4.417-1.943 4.775-.143.358-.277.752-.4 1.182a44.333 44.333 0 00-.499 2.1 13.513 13.513 0 00-.341-1.67 14.586 14.586 0 00-.537-1.729l-1.875-4.658h-4.102V182h2.773v-8.604l.186.665c.319 1.295.618 2.301.898 3.017l1.963 4.922h2.119l1.934-4.883c.28-.703.596-1.741.947-3.115l.157-.606V182zm16.894 0h2.783v-10.918h-4.062c-1.153 2.826-1.8 4.417-1.944 4.775-.143.358-.276.752-.4 1.182a45.994 45.994 0 00-.498 2.1 13.728 13.728 0 00-.342-1.67 14.586 14.586 0 00-.537-1.729l-1.875-4.658h-4.101V182h2.773v-8.604l.186.665c.319 1.295.618 2.301.898 3.017l1.963 4.922h2.119l1.934-4.883c.28-.703.595-1.741.947-3.115l.156-.606V182zm10.332-6.699h-1.435v-4.219h-2.979V182h4.522c1.595 0 2.793-.29 3.593-.869.801-.586 1.201-1.455 1.201-2.608 0-1.08-.4-1.888-1.201-2.421-.8-.534-2.034-.801-3.701-.801zm1.416 2.344c.339.188.508.494.508.917 0 .918-.661 1.377-1.982 1.377h-1.377v-2.578h1.337c.671 0 1.176.095 1.514.284zm5.069 4.355h2.978v-10.918h-2.978V182zm16.416-6.992c-.469.182-1.267.273-2.393.273h-1.094v2.061h1.153c1.054 0 1.835.107 2.343.322.508.208.762.534.762.977 0 .403-.241.716-.723.937-.481.215-1.207.322-2.177.322a8.901 8.901 0 01-1.944-.224 9.12 9.12 0 01-1.836-.615v2.46c.977.45 2.377.674 4.2.674 1.1 0 2.057-.14 2.871-.42.813-.28 1.435-.677 1.865-1.191.43-.514.644-1.104.644-1.768 0-.657-.192-1.188-.576-1.591-.377-.411-1.012-.726-1.904-.948v-.097c1.452-.371 2.178-1.172 2.178-2.403 0-.892-.41-1.598-1.231-2.119-.82-.521-1.911-.781-3.271-.781-.899 0-1.713.065-2.442.195a12.15 12.15 0 00-2.256.625l.879 2.08a9.067 9.067 0 011.729-.507 9.065 9.065 0 011.709-.186c.794 0 1.364.088 1.709.264.345.175.517.439.517.791 0 .397-.237.687-.712.869zm12.363 5.508l.576 1.484h2.08v-7.275c0-1.302-.391-2.273-1.172-2.911-.781-.638-1.904-.957-3.369-.957-1.53 0-2.923.329-4.18.987l.987 2.011c1.178-.527 2.203-.791 3.076-.791 1.133 0 1.699.554 1.699 1.661v.478l-1.894.059c-1.635.058-2.859.364-3.672.918-.808.547-1.211 1.399-1.211 2.558 0 1.107.299 1.96.898 2.559.606.599 1.432.898 2.481.898.852 0 1.543-.12 2.07-.361.534-.247 1.051-.687 1.553-1.318h.078zm-1.455-3.536l1.152-.039v.899c0 .657-.208 1.185-.625 1.582-.41.397-.96.596-1.65.596-.964 0-1.446-.42-1.446-1.26 0-.586.212-1.022.635-1.309.423-.286 1.068-.442 1.934-.469zm17.627-5.898h-3.282l-4.179 5.303v-5.303h-2.979V182h2.979v-5.537l4.463 5.537h3.379l-4.707-5.684 4.326-5.234zm8.3 9.434l.577 1.484h2.08v-7.275c0-1.302-.391-2.273-1.172-2.911-.781-.638-1.904-.957-3.369-.957-1.53 0-2.923.329-4.18.987l.986 2.011c1.179-.527 2.204-.791 3.077-.791 1.132 0 1.699.554 1.699 1.661v.478l-1.895.059c-1.634.058-2.858.364-3.672.918-.807.547-1.211 1.399-1.211 2.558 0 1.107.3 1.96.899 2.559.605.599 1.432.898 2.48.898.853 0 1.543-.12 2.071-.361.533-.247 1.051-.687 1.552-1.318h.078zm-1.455-3.536l1.153-.039v.899c0 .657-.209 1.185-.625 1.582-.41.397-.961.596-1.651.596-.963 0-1.445-.42-1.445-1.26 0-.586.212-1.022.635-1.309.423-.286 1.067-.442 1.933-.469zm12.295-1.972c-.468.182-1.266.273-2.392.273h-1.094v2.061h1.152c1.055 0 1.836.107 2.344.322.508.208.762.534.762.977 0 .403-.241.716-.723.937-.482.215-1.208.322-2.178.322a8.893 8.893 0 01-1.943-.224 9.12 9.12 0 01-1.836-.615v2.46c.977.45 2.376.674 4.199.674 1.101 0 2.058-.14 2.871-.42.814-.28 1.436-.677 1.866-1.191a2.682 2.682 0 00.644-1.768c0-.657-.192-1.188-.576-1.591-.378-.411-1.012-.726-1.904-.948v-.097c1.452-.371 2.177-1.172 2.177-2.403 0-.892-.41-1.598-1.23-2.119-.82-.521-1.911-.781-3.271-.781-.899 0-1.713.065-2.442.195a12.15 12.15 0 00-2.256.625l.879 2.08a9.067 9.067 0 011.729-.507 9.057 9.057 0 011.709-.186c.794 0 1.364.088 1.709.264.345.175.517.439.517.791 0 .397-.237.687-.713.869zm12.364 5.508l.576 1.484h2.08v-7.275c0-1.302-.391-2.273-1.172-2.911-.781-.638-1.904-.957-3.369-.957-1.53 0-2.923.329-4.18.987l.986 2.011c1.179-.527 2.204-.791 3.077-.791 1.132 0 1.699.554 1.699 1.661v.478l-1.895.059c-1.634.058-2.858.364-3.672.918-.807.547-1.21 1.399-1.21 2.558 0 1.107.299 1.96.898 2.559.605.599 1.432.898 2.48.898.853 0 1.543-.12 2.071-.361.534-.247 1.051-.687 1.552-1.318h.079zm-1.455-3.536l1.152-.039v.899c0 .657-.208 1.185-.625 1.582-.41.397-.96.596-1.651.596-.963 0-1.445-.42-1.445-1.26 0-.586.212-1.022.635-1.309.423-.286 1.068-.442 1.934-.469zM414 19a9 9 0 019-9h82a9 9 0 019 9v58.08c8.83 3.858 15 12.668 15 22.92 0 13.807-11.193 25-25 25-10.252 0-19.062-6.17-22.92-15H423a9 9 0 01-9-9V19zm409-9a9 9 0 00-9 9v82a9 9 0 009 9h82a9 9 0 009-9V19a9 9 0 00-9-9h-82zM214 149a9 9 0 019-9h58.08c3.858-8.83 12.668-15 22.92-15 13.807 0 25 11.193 25 25 0 10.252-6.17 19.062-15 22.92V231a9 9 0 01-9 9h-82a9 9 0 01-9-9v-82zm409-9a9 9 0 00-9 9v82a9 9 0 009 9h82a9 9 0 009-9v-58.08c8.83-3.858 15-12.668 15-22.92 0-13.807-11.193-25-25-25-10.252 0-19.062 6.17-22.92 15H623zm-480.5 4c6.904 0 12.5-5.596 12.5-12.5s-5.596-12.5-12.5-12.5-12.5 5.596-12.5 12.5 5.596 12.5 12.5 12.5zM355 118.5c0 6.904-5.596 12.5-12.5 12.5s-12.5-5.596-12.5-12.5 5.596-12.5 12.5-12.5 12.5 5.596 12.5 12.5zM742.5 131c6.904 0 12.5-5.596 12.5-12.5s-5.596-12.5-12.5-12.5-12.5 5.596-12.5 12.5 5.596 12.5 12.5 12.5zM181 145a8 8 0 11-16 0 8 8 0 0116 0zm192-32a8 8 0 100-16 8 8 0 000 16zm408-8a8 8 0 11-16 0 8 8 0 0116 0zm-586 51a4 4 0 100-8 4 4 0 000 8zm204-58a4 4 0 11-8 0 4 4 0 018 0zm396 4a4 4 0 100-8 4 4 0 000 8zm-252.5 42c6.904 0 12.5-5.596 12.5-12.5s-5.596-12.5-12.5-12.5-12.5 5.596-12.5 12.5 5.596 12.5 12.5 12.5zm38.5 1a8 8 0 11-16 0 8 8 0 0116 0zm14 11a4 4 0 100-8 4 4 0 000 8z" fill="url(#paint0_linear)"/></g><g filter="url(#filter1_d)"><rect x="24" y="20" width="80" height="80" rx="7" fill="url(#paint1_linear)"/></g><rect x="33" y="29" width="62" height="62" rx="5" fill="url(#paint2_linear)"/><path fill-rule="evenodd" clip-rule="evenodd" d="M67.88 50.608a4.608 4.608 0 11-9.216 0 4.608 4.608 0 019.215 0zm4 0a8.608 8.608 0 11-17.216 0 8.608 8.608 0 0117.215 0zM57.5 62.38c-5.523 0-10 4.477-10 10v2.329a2 2 0 104 0v-2.33a6 6 0 016-6h11.544a6 6 0 016 6v2.33a2 2 0 104 0v-2.33c0-5.522-4.477-10-10-10H57.5z" fill="#A7A7A7"/><g filter="url(#filter2_d)"><rect x="224" y="150" width="80" height="80" rx="7" fill="url(#paint3_linear)"/></g><rect x="233" y="159" width="62" height="62" rx="5" fill="url(#paint4_linear)"/><path d="M246.812 171.094a1.718 1.718 0 100 3.437v-3.437zm34.052 11.143l1.674.386-1.674-.386zm-2.499 10.828l-1.675-.387 1.675.387zm-24.493-19.331l-1.686.337 1.686-.337zm-7.06.797h5.936v-3.437h-5.936v3.437zm14.277 22.917h13.926v-3.438h-13.926v3.438zm18.951-3.997l2.498-10.828-3.349-.773-2.499 10.828 3.35.773zm-27.854-19.38l1.42 7.099 3.371-.674-1.42-7.099-3.371.674zm1.42 7.099l2.427 12.133 3.371-.674-2.427-12.133-3.371.674zm26.141-2.055h-24.455v3.437h24.455v-3.437zm2.791 3.508a2.864 2.864 0 00-2.791-3.508v3.437a.573.573 0 01-.558-.702l3.349.773zm-7.523 14.825a5.157 5.157 0 005.025-3.997l-3.35-.773a1.718 1.718 0 01-1.675 1.332v3.438zm-13.926-3.438a1.718 1.718 0 01-1.685-1.381l-3.371.674a5.156 5.156 0 005.056 4.145v-3.438zm-8.341-19.479a.574.574 0 01-.562-.46l3.371-.674a2.865 2.865 0 00-2.809-2.303v3.437z" fill="#A7A7A7"/><circle cx="259.531" cy="203.406" r="3.094" fill="#A7A7A7"/><circle cx="275.115" cy="203.406" r="3.094" fill="#A7A7A7"/><g filter="url(#filter3_d)"><rect x="624" y="150" width="80" height="80" rx="7" fill="url(#paint5_linear)"/></g><rect x="633" y="159" width="62" height="62" rx="5" fill="url(#paint6_linear)"/><path fill-rule="evenodd" clip-rule="evenodd" d="M663.26 173.909h-.002l-13.329 6.665-.004.002a1.672 1.672 0 00-.925 1.491v15.878a1.667 1.667 0 00.915 1.499s.001.001 0 0l13.33 6.665a1.672 1.672 0 001.492.001l13.334-6.667.004-.002a1.672 1.672 0 00.925-1.492v-15.881a1.672 1.672 0 00-.925-1.492l-.004-.002-13.329-6.665h-.002a1.666 1.666 0 00-1.48 0zm2.223-1.492l.742-1.493a5.006 5.006 0 00-4.45 0l-.004.002-13.329 6.665-.002.001a5.003 5.003 0 00-2.773 4.474v15.862a4.99 4.99 0 002.75 4.494l.004.002 13.333 6.667a5.01 5.01 0 004.475 0l13.329-6.665.002-.001a5.004 5.004 0 002.773-4.474v-15.884a5.003 5.003 0 00-2.773-4.475l-.002-.001-13.329-6.665-.746 1.491z" fill="#A7A7A7"/><path fill-rule="evenodd" clip-rule="evenodd" d="M646.376 179.521a1.667 1.667 0 012.236-.745L664 186.47l15.388-7.694a1.667 1.667 0 011.491 2.981l-16.134 8.067a1.663 1.663 0 01-1.49 0l-16.134-8.067a1.666 1.666 0 01-.745-2.236z" fill="#A7A7A7"/><path fill-rule="evenodd" clip-rule="evenodd" d="M664 186.667c.92 0 1.667.746 1.667 1.666v19.6a1.667 1.667 0 01-3.334 0v-19.6c0-.92.747-1.666 1.667-1.666zM654.176 175.088a1.667 1.667 0 012.236-.745l16.667 8.333a1.667 1.667 0 01-1.491 2.981l-16.667-8.333a1.667 1.667 0 01-.745-2.236z" fill="#A7A7A7"/><g filter="url(#filter4_d)"><rect x="424" y="20" width="80" height="80" rx="7" fill="url(#paint7_linear)"/></g><rect x="433" y="29" width="62" height="62" rx="5" fill="url(#paint8_linear)"/><path fill-rule="evenodd" clip-rule="evenodd" d="M454 43.333a3.333 3.333 0 00-3.333 3.334v22.5c0 .46.373.833.833.833h1.667c.46 0 .833-.373.833-.833V48.333c0-.92.746-1.666 1.667-1.666h14.166a.833.833 0 00.834-.834v-1.666a.833.833 0 00-.834-.834H454zm3.697 8.487c-.364.713-.364 1.646-.364 3.513v16c0 1.867 0 2.8.364 3.514a3.33 3.33 0 001.456 1.456c.713.364 1.647.364 3.514.364H472c1.867 0 2.8 0 3.513-.364a3.332 3.332 0 001.457-1.456c.363-.713.363-1.647.363-3.514v-16c0-1.867 0-2.8-.363-3.513a3.332 3.332 0 00-1.457-1.457C474.8 50 473.867 50 472 50h-9.333c-1.867 0-2.801 0-3.514.363a3.33 3.33 0 00-1.456 1.457zm3.151 2.423c-.181.357-.181.823-.181 1.757v14.667c0 .933 0 1.4.181 1.756.16.314.415.569.729.729.356.181.823.181 1.756.181h8c.934 0 1.4 0 1.757-.181a1.66 1.66 0 00.728-.729c.182-.356.182-.823.182-1.756V56c0-.934 0-1.4-.182-1.757a1.66 1.66 0 00-.728-.728c-.357-.182-.823-.182-1.757-.182h-8c-.933 0-1.4 0-1.756.182-.314.16-.569.415-.729.728zM464 58c0-.467 0-.7.091-.878a.833.833 0 01.364-.365c.178-.09.412-.09.878-.09h4c.467 0 .7 0 .879.09.156.08.284.208.364.365.091.178.091.411.091.878v.667c0 .466 0 .7-.091.878a.838.838 0 01-.364.364c-.179.09-.412.09-.879.09h-4c-.466 0-.7 0-.878-.09a.833.833 0 01-.364-.364c-.091-.178-.091-.412-.091-.878V58zm.091 4.122C464 62.3 464 62.533 464 63v.667c0 .466 0 .7.091.878.08.157.207.284.364.364.178.09.412.09.878.09h4c.467 0 .7 0 .879-.09a.838.838 0 00.364-.364c.091-.178.091-.412.091-.878V63c0-.467 0-.7-.091-.878a.838.838 0 00-.364-.365c-.179-.09-.412-.09-.879-.09h-4c-.466 0-.7 0-.878.09a.833.833 0 00-.364.365zM464 68c0-.467 0-.7.091-.878a.833.833 0 01.364-.365c.178-.09.412-.09.878-.09h4c.467 0 .7 0 .879.09.156.08.284.208.364.365.091.178.091.411.091.878v.667c0 .466 0 .7-.091.878a.838.838 0 01-.364.364c-.179.09-.412.09-.879.09h-4c-.466 0-.7 0-.878-.09a.833.833 0 01-.364-.364c-.091-.178-.091-.412-.091-.878V68z" fill="#A7A7A7"/><g filter="url(#filter5_d)"><rect x="824" y="20" width="80" height="80" rx="7" fill="url(#paint9_linear)"/></g><rect x="833" y="29" width="62" height="62" rx="5" fill="url(#paint10_linear)"/><g clip-path="url(#clip0)" fill-rule="evenodd" clip-rule="evenodd" fill="#A7A7A7"><path d="M864 40c.921 0 1.667.746 1.667 1.667v36.666a1.667 1.667 0 11-3.334 0V41.667c0-.92.747-1.667 1.667-1.667z"/><path d="M854.53 48.863a7.5 7.5 0 015.303-2.196h12.5a1.667 1.667 0 110 3.333h-12.5a4.165 4.165 0 100 8.333h8.334a7.5 7.5 0 010 15H854A1.667 1.667 0 01854 70h14.167a4.165 4.165 0 100-8.333h-8.334a7.5 7.5 0 01-5.303-12.804z"/></g><defs><linearGradient id="paint0_linear" x1="827.458" y1="55.738" x2="-8.472" y2="81.275" gradientUnits="userSpaceOnUse"><stop stop-color="#2F80ED"/><stop offset="1" stop-color="#C7DEFD"/></linearGradient><linearGradient id="paint1_linear" x1="104" y1="20" x2="24" y2="100" gradientUnits="userSpaceOnUse"><stop stop-color="#fff"/><stop offset="1" stop-color="#F5F0F0"/></linearGradient><linearGradient id="paint2_linear" x1="91.82" y1="31.385" x2="38.564" y2="91" gradientUnits="userSpaceOnUse"><stop stop-color="#E9E9E9"/><stop offset="1" stop-color="#FEFEFE"/></linearGradient><linearGradient id="paint3_linear" x1="304" y1="150" x2="224" y2="230" gradientUnits="userSpaceOnUse"><stop stop-color="#fff"/><stop offset="1" stop-color="#F5F0F0"/></linearGradient><linearGradient id="paint4_linear" x1="291.821" y1="161.385" x2="238.564" y2="221" gradientUnits="userSpaceOnUse"><stop stop-color="#E9E9E9"/><stop offset="1" stop-color="#FEFEFE"/></linearGradient><linearGradient id="paint5_linear" x1="704" y1="150" x2="624" y2="230" gradientUnits="userSpaceOnUse"><stop stop-color="#fff"/><stop offset="1" stop-color="#F5F0F0"/></linearGradient><linearGradient id="paint6_linear" x1="691.821" y1="161.385" x2="638.564" y2="221" gradientUnits="userSpaceOnUse"><stop stop-color="#E9E9E9"/><stop offset="1" stop-color="#FEFEFE"/></linearGradient><linearGradient id="paint7_linear" x1="504" y1="20" x2="424" y2="100" gradientUnits="userSpaceOnUse"><stop stop-color="#fff"/><stop offset="1" stop-color="#F5F0F0"/></linearGradient><linearGradient id="paint8_linear" x1="491.821" y1="31.385" x2="438.564" y2="91" gradientUnits="userSpaceOnUse"><stop stop-color="#E9E9E9"/><stop offset="1" stop-color="#FEFEFE"/></linearGradient><linearGradient id="paint9_linear" x1="904" y1="20" x2="824" y2="100" gradientUnits="userSpaceOnUse"><stop stop-color="#fff"/><stop offset="1" stop-color="#F5F0F0"/></linearGradient><linearGradient id="paint10_linear" x1="891.821" y1="31.385" x2="838.564" y2="91" gradientUnits="userSpaceOnUse"><stop stop-color="#E9E9E9"/><stop offset="1" stop-color="#FEFEFE"/></linearGradient><filter id="filter0_i" x="1.764" y="10" width="955.957" height="306.195" filterUnits="userSpaceOnUse" color-interpolation-filters="sRGB"><feFlood flood-opacity="0" result="BackgroundImageFix"/><feBlend in="SourceGraphic" in2="BackgroundImageFix" result="shape"/><feColorMatrix in="SourceAlpha" values="0 0 0 0 0 0 0 0 0 0 0 0 0 0 0 0 0 0 127 0" result="hardAlpha"/><feOffset dy="4"/><feGaussianBlur stdDeviation="2"/><feComposite in2="hardAlpha" operator="arithmetic" k2="-1" k3="1"/><feColorMatrix values="0 0 0 0 0 0 0 0 0 0 0 0 0 0 0 0 0 0 0.25 0"/><feBlend in2="shape" result="effect1_innerShadow"/></filter><filter id="filter1_d" x="0" y="0" width="128" height="128" filterUnits="userSpaceOnUse" color-interpolation-filters="sRGB"><feFlood flood-opacity="0" result="BackgroundImageFix"/><feColorMatrix in="SourceAlpha" values="0 0 0 0 0 0 0 0 0 0 0 0 0 0 0 0 0 0 127 0"/><feOffset dy="4"/><feGaussianBlur stdDeviation="12"/><feColorMatrix values="0 0 0 0 0 0 0 0 0 0 0 0 0 0 0 0 0 0 0.56 0"/><feBlend in2="BackgroundImageFix" result="effect1_dropShadow"/><feBlend in="SourceGraphic" in2="effect1_dropShadow" result="shape"/></filter><filter id="filter2_d" x="200" y="130" width="128" height="128" filterUnits="userSpaceOnUse" color-interpolation-filters="sRGB"><feFlood flood-opacity="0" result="BackgroundImageFix"/><feColorMatrix in="SourceAlpha" values="0 0 0 0 0 0 0 0 0 0 0 0 0 0 0 0 0 0 127 0"/><feOffset dy="4"/><feGaussianBlur stdDeviation="12"/><feColorMatrix values="0 0 0 0 0 0 0 0 0 0 0 0 0 0 0 0 0 0 0.56 0"/><feBlend in2="BackgroundImageFix" result="effect1_dropShadow"/><feBlend in="SourceGraphic" in2="effect1_dropShadow" result="shape"/></filter><filter id="filter3_d" x="600" y="130" width="128" height="128" filterUnits="userSpaceOnUse" color-interpolation-filters="sRGB"><feFlood flood-opacity="0" result="BackgroundImageFix"/><feColorMatrix in="SourceAlpha" values="0 0 0 0 0 0 0 0 0 0 0 0 0 0 0 0 0 0 127 0"/><feOffset dy="4"/><feGaussianBlur stdDeviation="12"/><feColorMatrix values="0 0 0 0 0 0 0 0 0 0 0 0 0 0 0 0 0 0 0.56 0"/><feBlend in2="BackgroundImageFix" result="effect1_dropShadow"/><feBlend in="SourceGraphic" in2="effect1_dropShadow" result="shape"/></filter><filter id="filter4_d" x="400" y="0" width="128" height="128" filterUnits="userSpaceOnUse" color-interpolation-filters="sRGB"><feFlood flood-opacity="0" result="BackgroundImageFix"/><feColorMatrix in="SourceAlpha" values="0 0 0 0 0 0 0 0 0 0 0 0 0 0 0 0 0 0 127 0"/><feOffset dy="4"/><feGaussianBlur stdDeviation="12"/><feColorMatrix values="0 0 0 0 0 0 0 0 0 0 0 0 0 0 0 0 0 0 0.56 0"/><feBlend in2="BackgroundImageFix" result="effect1_dropShadow"/><feBlend in="SourceGraphic" in2="effect1_dropShadow" result="shape"/></filter><filter id="filter5_d" x="800" y="0" width="128" height="128" filterUnits="userSpaceOnUse" color-interpolation-filters="sRGB"><feFlood flood-opacity="0" result="BackgroundImageFix"/><feColorMatrix in="SourceAlpha" values="0 0 0 0 0 0 0 0 0 0 0 0 0 0 0 0 0 0 127 0"/><feOffset dy="4"/><feGaussianBlur stdDeviation="12"/><feColorMatrix values="0 0 0 0 0 0 0 0 0 0 0 0 0 0 0 0 0 0 0.56 0"/><feBlend in2="BackgroundImageFix" result="effect1_dropShadow"/><feBlend in="SourceGraphic" in2="effect1_dropShadow" result="shape"/></filter><clipPath id="clip0"><path fill="#fff" transform="translate(844 40)" d="M0 0h40v40H0z"/></clipPath></defs></svg>