<svg fill="none" xmlns="http://www.w3.org/2000/svg" viewBox="0 0 53 38"><path fill-rule="evenodd" clip-rule="evenodd" d="M25.879 34h-6.854c-5.41-5.207-8.775-12.523-8.775-20.625 0-3.284.553-6.438 1.57-9.375h4.548a24.301 24.301 0 00-1.868 9.375c0 8.684 4.541 16.308 11.379 20.625zM9.25 13.375A29.527 29.527 0 0017.609 34H9a5 5 0 01-5-5V9a5 5 0 015-5h1.764a29.595 29.595 0 00-1.514 9.375zM30.185 34H44a5 5 0 005-5v-1.197A17.545 17.545 0 0138.875 31c-9.734 0-17.625-7.891-17.625-17.625 0-3.445.988-6.66 2.698-9.375h-5.395a22.29 22.29 0 00-2.053 9.375c0 9.276 5.644 17.233 13.685 20.625zm8.69-6c3.93 0 7.497-1.55 10.125-4.072V9a5 5 0 00-5-5H27.65a14.566 14.566 0 00-3.4 9.375C24.25 21.452 30.798 28 38.875 28zm-5.743-13.379h3.401v3.384h1.925V14.62h3.401v-1.925h-3.401V9.27h-1.925v3.427h-3.401v1.925z" fill="url(#paint0_linear)"/><defs><linearGradient id="paint0_linear" x1="49" y1="9" x2="4" y2="34" gradientUnits="userSpaceOnUse"><stop stop-color="#EF7C00"/><stop offset="1" stop-color="#41382F"/></linearGradient></defs></svg>