<svg fill="none" xmlns="http://www.w3.org/2000/svg" viewBox="0 0 130 36"><path fill-rule="evenodd" clip-rule="evenodd" d="M48.047.813V11.83L37.66.812h-1.791v17.47h3.582V7.263L49.838 18.28h1.79V.813h-3.58zm10.46 14.207v-4.06h4.727c1.146 0 2.15.798 2.15 2.03 0 1.305-1.147 2.03-2.15 2.03h-4.728zM61.8 4.074c1.147 0 2.15.725 2.15 1.885 0 1.16-.932 1.812-1.935 1.884h-3.582V4.002h3.367v.072zm5.445 1.957c0-3.189-2.293-5.218-5.23-5.218h-7.163V18.28h8.811c2.937 0 5.23-2.03 5.23-5.219 0-1.957-1.147-3.334-2.723-4.204.717-.87 1.075-1.812 1.075-2.827zm17.408 5.074c-.645 2.392-2.508 3.915-4.943 3.915-3.01 0-5.015-2.537-5.015-5.437 0-3.044 2.078-5.436 5.015-5.436 2.435 0 4.298 1.594 4.943 3.914l3.438-1.087C86.946 3.132 83.507.812 79.711.812c-5.015 0-8.812 3.842-8.812 8.771 0 5.002 4.012 8.77 8.812 8.77 3.94 0 7.307-2.464 8.381-6.16l-3.438-1.088zm9.026-1.522c0-2.972 1.862-5.436 5.086-5.436 2.866 0 5.015 2.174 5.015 5.436 0 2.972-1.863 5.437-5.015 5.437-3.152 0-5.086-2.465-5.086-5.437zm-3.797 0c0 4.784 3.582 8.77 8.812 8.77 4.799 0 8.811-3.551 8.811-8.77 0-4.784-3.51-8.77-8.811-8.77-4.872 0-8.812 3.769-8.812 8.77zm37.108-8.77l-7.522 8.77-7.522-8.77h-1.791V18.28h3.582V7.41l5.731 6.668L125.2 7.41V18.28h3.582V.813h-1.791zM41.098 27.776v2.32h3.51c0 .072 0 .217-.071.29-.358 1.739-1.648 2.898-3.439 2.898-2.149 0-3.51-1.74-3.51-3.841 0-2.175 1.433-3.842 3.51-3.842.788 0 1.505.218 2.078.652l1.504-1.884c-1.074-.725-2.22-1.087-3.582-1.087-3.51 0-6.16 2.682-6.16 6.16 0 3.553 2.793 6.09 6.16 6.09 3.51 0 6.161-2.682 6.161-6.09 0-.579-.072-1.159-.215-1.739h-5.946v.073zm18.626-2.03h3.295c.788 0 1.505.508 1.505 1.305 0 .87-.788 1.305-1.505 1.305h-3.295v-2.61zm7.952 9.93l-3.01-5.218c1.577-.58 2.365-1.74 2.365-3.335 0-2.247-1.648-3.624-3.654-3.624h-6.16v12.25h2.507v-5.001h2.22l2.866 5.001h2.866v-.072zm12.25-6.16c0-2.03 1.29-3.842 3.51-3.842 2.006 0 3.51 1.522 3.51 3.841 0 2.03-1.29 3.842-3.51 3.842-2.15 0-3.51-1.74-3.51-3.842zm-2.651 0c0 3.334 2.507 6.088 6.16 6.088 3.368 0 6.162-2.464 6.162-6.089 0-3.334-2.508-6.088-6.161-6.088-3.439 0-6.161 2.61-6.161 6.088zm30.159-6.09v6.524c0 1.74-.931 3.334-2.722 3.334-1.934 0-2.722-1.74-2.722-3.334v-6.523h-2.507v6.668c0 3.19 2.077 5.582 5.229 5.582 3.224 0 5.23-2.465 5.23-5.582v-6.668h-2.508zm15.259 4.93v-2.61h3.295c.788 0 1.505.508 1.505 1.305 0 .87-.788 1.305-1.505 1.305h-3.295zm-2.507-4.93v12.25h2.507v-5h3.653c2.078 0 3.654-1.523 3.654-3.625 0-2.247-1.648-3.624-3.654-3.624h-6.16z" fill="#05538C"/><path fill-rule="evenodd" clip-rule="evenodd" d="M.665 0H7.46a.65.65 0 01.665.639v13.347a.65.65 0 01-.665.639H.665A.65.65 0 010 13.986V.639A.65.65 0 01.665 0z" fill="#50AE30"/><path fill-rule="evenodd" clip-rule="evenodd" d="M10.254 0h18.492c.288 0 .504.212.504.495V14.13a.487.487 0 01-.504.495H10.254a.487.487 0 01-.504-.495V.495c0-.283.216-.495.504-.495z" fill="#EF7C00"/><path fill-rule="evenodd" clip-rule="evenodd" d="M.653 16.25h27.944c.363 0 .653.284.653.639v13.347c0 .355-.29.639-.653.639H.653A.644.644 0 010 30.236V16.818c0-.284.29-.568.653-.568zM.652 34.125h27.946c.362 0 .652-.217.652-.487v-.65c0-.271-.29-.488-.652-.488H.652c-.362 0-.652.217-.652.487v.65c.072.271.362.488.652.488z" fill="#05538C"/></svg>