<svg fill="none" xmlns="http://www.w3.org/2000/svg" viewBox="0 0 53 38"><path fill-rule="evenodd" clip-rule="evenodd" d="M5.508 5.422A4.985 4.985 0 004 9v20c0 1.402.577 2.67 1.508 3.578l7.494-7.494A2.133 2.133 0 0113 25V13c0-.028 0-.056.002-.084L5.508 5.422zm8.61 5.782c.266-.13.566-.204.882-.204h23c.18 0 .353.024.518.068l6.872-6.872A5.002 5.002 0 0044 4H9c-.621 0-1.216.113-1.765.32l6.883 6.884zM46.998 5l.21.208-7.276 7.275c.044.165.068.339.068.518v12c0 .18-.024.353-.068.518l7.275 7.275-.209.209A4.993 4.993 0 0049 29V9c0-1.636-.786-3.09-2.002-4.001zM45.39 33.804l-6.872-6.872A2.006 2.006 0 0138 27H15c-.316 0-.616-.073-.882-.204l-6.883 6.883A4.99 4.99 0 009 34h35a5 5 0 001.39-.196z" fill="url(#paint0_linear)"/><defs><linearGradient id="paint0_linear" x1="49" y1="4" x2="4" y2="34" gradientUnits="userSpaceOnUse"><stop stop-color="#EF7C00"/><stop offset="1" stop-color="#784E22"/></linearGradient></defs></svg>