<svg fill="none" xmlns="http://www.w3.org/2000/svg" viewBox="0 0 78 78"><path d="M52.832 41.1c-.055.147-.734 2.459-2.32 4.852-1.44 2.1-2.936 4.128-5.22 4.165-2.33.036-3.054-1.294-5.668-1.294-2.605 0-3.403 1.266-5.559 1.33-2.292.101-3.998-2.173-5.42-4.283-2.926-4.228-5.137-11.933-2.137-17.161 1.449-2.633 4.136-4.274 7.053-4.311 2.22-.055 4.265 1.468 5.632 1.468 1.357 0 3.861-1.853 6.549-1.56 1.055.037 4.219.45 6.182 3.421-.165.083-3.697 2.174-3.66 6.494.037 5.183 4.503 6.87 4.568 6.88zM43.971 21.564c1.21-1.468 2.018-3.449 1.807-5.44-1.752.065-3.843 1.147-5.045 2.596-1.128 1.275-2.11 3.32-1.825 5.201 1.945.137 3.852-.963 5.063-2.357z" fill="#231F20"/></svg>