<svg fill="none" xmlns="http://www.w3.org/2000/svg" viewBox="0 0 78 78"><path fill-rule="evenodd" clip-rule="evenodd" d="M22.096 39.164c0 2.239-1.523 3.21-3.311 3.21h-1.138v-6.41h1.174c1.927-.01 3.275 1.155 3.275 3.2zm20.903 2.303l-8.658 6.815-7.907-6.228c-1.137 2.742-3.898 4.65-7.071 4.65h-6.77v-15.08h6.76c3.55 0 6.11 2.257 7.072 4.66l7.916-6.218 2.926 2.302-7.256 5.696 1.395 1.091 7.246-5.696 2.935 2.303-7.246 5.705 1.394 1.091 7.255-5.705v-5.228h5.265V42.3H53.5v4.421H43v-5.255zm17.17.834h5.247v4.421H54.905V31.625h5.264V42.3z" fill="#007BB7"/></svg>