<svg fill="none" xmlns="http://www.w3.org/2000/svg" viewBox="0 0 78 78"><path d="M68.653 26.168c-2.806-13.694-29.396-14.565-46.53-4.127v1.155c17.115-8.805 41.403-8.75 43.614 3.862.743 4.173-1.605 8.52-5.806 11.025v3.274c5.044-1.852 10.227-7.851 8.722-15.189zM37.505 50.135c-11.823 1.092-24.15-.624-25.875-9.87-.844-4.558 1.23-9.382 3.99-12.39v-1.606c-4.962 4.348-7.65 9.85-6.1 16.354 1.982 8.338 12.548 13.061 28.7 11.493 6.393-.624 14.75-2.679 20.564-5.87v-4.532c-5.283 3.147-14.006 5.751-21.28 6.421z" fill="#2371B9"/><path d="M57.821 24.178h-3.1v13.804c0 1.614.78 3.027 3.1 3.247V24.178zm-36.918 5.035h-3.11v9.017c0 1.623.79 3.026 3.11 3.247V29.213zm-3.1-1.678h3.1V24.59h-3.1v2.945zm21.665 13.813c-2.504 0-3.568-1.743-3.568-3.467V25.902h3.072v3.311h2.312V31.7h-2.312v5.99c0 .706.33 1.09 1.064 1.09h1.248v2.57h-1.816zm8.154-9.796c-1.055 0-1.862.541-2.202 1.275-.201.44-.275.78-.293 1.32h4.733c-.055-1.32-.651-2.595-2.238-2.595zm-2.495 4.687c0 1.569.981 2.733 2.724 2.733 1.367 0 2.036-.376 2.825-1.155l1.899 1.807c-1.22 1.201-2.495 1.935-4.742 1.935-2.945 0-5.76-1.605-5.76-6.283 0-3.999 2.467-6.265 5.686-6.265 3.284 0 5.164 2.651 5.164 6.128v1.11l-7.796-.01zM29.25 31.7c.899 0 1.275.44 1.275 1.165v8.502h3.072v-8.52c0-1.725-.917-3.623-3.623-3.623h-6.347v12.143H26.7V31.7h2.55z" fill="#2371B9"/></svg>