<svg fill="none" xmlns="http://www.w3.org/2000/svg" viewBox="0 0 78 78"><path d="M33.674 34.832c-1.195 0-2.544.54-3.392 1.658v-1.504H27.43v10.369h2.852v-5.897c0-1.08.81-2.197 2.351-2.197 1.195 0 2.39.809 2.39 2.197v5.897h2.852v-6.399c0-2.39-1.696-4.124-4.201-4.124zM58.094 34.99l-2.582 7.054-2.582-7.053h-3.238l4.278 10.368h3.122l4.24-10.368h-3.238zM18.934 38.138c.501-.655 1.272-1.04 2.197-1.04 1.04 0 1.812.577 2.197 1.464l-4.972 2.043c-.116-1.08.154-1.89.578-2.467zm5.473 4.047c-1.195.886-1.888 1.08-2.968 1.08-.963 0-1.734-.31-2.312-.849l7.285-3.006c-.154-1.118-.578-2.12-1.234-2.891-.963-1.118-2.351-1.696-4.085-1.696-3.122 0-5.474 2.313-5.474 5.358 0 3.122 2.352 5.357 5.782 5.357 1.927 0 3.893-.925 4.818-1.965l-1.812-1.388zM15.328 42.744H8.852V31.913h-2.89v13.452h9.327v-2.621h.039zM66.421 37.278c-1.58 0-2.737 1.195-2.737 2.93 0 1.619 1.234 2.929 2.776 2.929 1.58 0 2.736-1.233 2.736-2.93 0-1.657-1.195-2.929-2.775-2.929zm0 8.249c-3.122 0-5.55-2.313-5.55-5.358 0-3.006 2.467-5.357 5.589-5.357 3.122 0 5.55 2.312 5.55 5.357 0 3.007-2.428 5.358-5.589 5.358zM44.545 37.278c-1.58 0-2.737 1.195-2.737 2.93 0 1.619 1.234 2.929 2.775 2.929 1.58 0 2.737-1.233 2.737-2.93 0-1.657-1.233-2.929-2.775-2.929zm0 8.249c-3.122 0-5.55-2.313-5.55-5.358 0-3.006 2.466-5.357 5.588-5.357s5.55 2.312 5.55 5.357c0 3.007-2.466 5.358-5.588 5.358z" fill="#E60012"/></svg>