<svg fill="none" xmlns="http://www.w3.org/2000/svg" viewBox="0 0 78 78"><path d="M6.494 42.139c.11.256.064.596.018.788-.082.367-.34.725-1.045.725-.66 0-1.092-.385-1.092-.981v-1.046H1.523v.835c0 2.384 1.88 3.109 3.898 3.109 1.944 0 3.54-.66 3.797-2.449.128-.917.046-1.532 0-1.752-.45-2.238-4.522-2.916-4.815-4.155-.046-.21-.046-.45-.019-.55.083-.34.321-.725.982-.725.614 0 1 .386 1 .982v.66h2.669v-.752c0-2.32-2.092-2.706-3.605-2.706-1.899 0-3.458.642-3.751 2.385-.083.468-.083.899.018 1.45.45 2.155 4.247 2.797 4.797 4.182zM41.339 42.111c.11.257.064.578.018.789-.082.367-.32.706-1.027.706-.66 0-1.064-.385-1.064-.963v-1.027h-2.834v.807c0 2.366 1.853 3.073 3.861 3.073 1.917 0 3.495-.66 3.752-2.431.128-.917.046-1.513-.019-1.752-.449-2.22-4.476-2.88-4.778-4.118-.046-.211-.046-.45-.019-.55.083-.34.303-.707.964-.707.614 0 .98.386.98.963v.66h2.642v-.733c0-2.302-2.063-2.67-3.586-2.67-1.88 0-3.43.615-3.705 2.349a3.77 3.77 0 00.018 1.43c.486 2.175 4.237 2.817 4.797 4.174zM63.554 43.074l-.147-8.64h2.66v10.621H62.25l-2.706-8.915.147 8.915h-2.641v-10.62h3.98l2.523 8.64zM31.039 35.25l-1.835 9.916h-2.733l-1.834-9.916-.083 9.916h-2.66l.23-10.732h4.347l1.367 8.383 1.348-8.383h4.366l.239 10.732h-2.688l-.064-9.916zM50.337 43.56c.743 0 .981-.513 1.027-.77.019-.11.019-.275.019-.404v-7.952h2.705v7.677c0 .193-.018.596-.018.706-.193 2.01-1.77 2.642-3.733 2.642s-3.559-.642-3.733-2.642c0-.11-.019-.513-.019-.706v-7.677h2.706v7.934c0 .128 0 .303.019.404.045.284.275.788 1.027.788zM72.68 43.432c.77 0 1.046-.486 1.092-.77.018-.129.018-.276.018-.404v-1.56h-1.11V39.14h3.797v2.853c0 .193 0 .34-.045.706-.175 1.945-1.88 2.642-3.77 2.642-1.899 0-3.587-.707-3.77-2.642-.046-.367-.046-.514-.046-.706v-4.494c0-.193.019-.532.046-.707.239-2.008 1.853-2.641 3.752-2.641 1.898 0 3.558.642 3.75 2.641.047.34.02.707.02.707v.366h-2.707v-.596s0-.257-.045-.403c-.046-.239-.257-.77-1.064-.77-.79 0-1 .513-1.064.77-.019.146-.046.339-.046.513v4.907c0 .129 0 .276.018.404.129.257.385.743 1.174.743zM11.153 45.166h2.66c.055 0 .11-.046.12-.101l1.357-9.035c.018-.138.21-.138.23 0l1.32 9.035c.01.055.055.1.12.1h2.632a.12.12 0 00.119-.137l-1.917-10.493a.12.12 0 00-.12-.1h-4.576c-.055 0-.101.036-.12.09L11.043 45.02c-.018.073.037.147.11.147z" fill="#034EA2"/></svg>