<svg fill="none" xmlns="http://www.w3.org/2000/svg" viewBox="0 0 78 78"><path d="M29.791 33.153c-2.21 0-4.568.76-5.907 1.98a4.954 4.954 0 00-1.605 3.651c0 1.358.532 2.678 1.605 3.65 1.45 1.294 3.596 1.991 5.907 1.991 2.33 0 4.54-.679 5.925-1.99 1.037-.954 1.587-2.358 1.587-3.65 0-1.35-.514-2.67-1.587-3.642-1.495-1.367-3.458-1.99-5.925-1.99zm3.174 8.566c-.798.79-1.936 1.22-3.174 1.22-1.21 0-2.385-.43-3.183-1.22-.752-.761-1.155-1.816-1.155-2.935 0-1.128.403-2.201 1.155-2.944.79-.78 1.954-1.21 3.183-1.21 1.21 0 2.385.44 3.174 1.21.76.761 1.164 1.807 1.164 2.944 0 1.183-.376 2.147-1.164 2.935zm-14.85-3.586a7.918 7.918 0 00-1.247-.431c-.808-.202-2.642-.45-3.504-.532-.918-.101-2.504-.23-3.137-.422-.193-.055-.587-.248-.587-.697 0-.321.183-.596.541-.826.56-.348 1.706-.568 2.88-.568 1.403 0 2.587.312 3.339.65.257.13.56.285.798.478.266.22.642.679.78 1.302h1.265v-3.43H17.84v.404c0 .137-.138.293-.395.165-.633-.33-2.412-1.046-4.604-1.055-1.238 0-2.65.238-3.843.77-1.11.496-2.027 1.293-2.027 2.623 0 1.193.761 1.88.734 1.862.32.303.853.808 2.2 1.101.597.138 1.9.33 3.193.477 1.284.138 2.54.257 3.054.395.404.11 1.091.247 1.091 1.018 0 .77-.724 1-.852 1.045-.129.046-.991.45-2.55.45-1.147 0-2.532-.34-3.027-.514-.578-.211-1.183-.495-1.752-1.183-.138-.175-.358-.651-.358-1.12H7.283v3.945H8.85v-.532c0-.046.083-.312.34-.184.32.147 1.293.523 2.292.734.817.174 1.349.294 2.376.294 1.67 0 2.568-.266 3.192-.45.587-.174 1.312-.477 1.899-.935a2.593 2.593 0 001.009-2.073c0-1.128-.597-1.835-.817-2.046a3.52 3.52 0 00-1.027-.715zm30.47-3.091h1.302c.587 0 .688.23.697.78l.074 4.182-6.88-6.21h-4.925v1.248h1.092c.788 0 .853.44.853.825v5.87c0 .35.018.835-.486.835h-1.358v1.257h5.788v-1.257h-1.404c-.56 0-.587-.247-.596-.807v-5.017l7.934 7.072h2.018l-.11-7.99c.018-.586.046-.779.651-.779h1.248v-1.247h-5.889l-.01 1.238zm16.785-1.248v1.248h.853c.248 0 .32.257.22.394l-2.403 2.816-.064-.009-2.34-2.807c-.164-.21-.036-.394.147-.394h.835v-1.248h-6.906v1.248h1.229c.532 0 .88.34 1.082.56.156.174 3.678 4.164 3.76 4.274.083.11.083.128.083.174v1.972l-.027.275a.392.392 0 01-.276.23l-.348.027h-1.23v1.256h6.87v-1.256h-1.302l-.34-.018a.4.4 0 01-.265-.23l-.028-.275V40.05l.046-.193c.092-.11 3.642-4.173 3.816-4.347.34-.395.532-.486.99-.486h1.266v-1.239l-5.668.01z" fill="#000"/></svg>